<svg xmlns="http://www.w3.org/2000/svg" xmlns:xlink="http://www.w3.org/1999/xlink" width="512" zoomAndPan="magnify" viewBox="0 0 384 383.999986" height="512" preserveAspectRatio="xMidYMid meet" version="1.0"><defs><clipPath id="1afc644b5a"><path d="M 59.34375 120 L 324 120 L 324 383.695312 L 59.34375 383.695312 Z M 59.34375 120 " clip-rule="nonzero"/></clipPath><clipPath id="f72b3db2d6"><path d="M 144 0.445312 L 239 0.445312 L 239 91 L 144 91 Z M 144 0.445312 " clip-rule="nonzero"/></clipPath><clipPath id="be893217af"><path d="M 59.34375 66 L 125 66 L 125 129 L 59.34375 129 Z M 59.34375 66 " clip-rule="nonzero"/></clipPath></defs><path fill="#ffd242" d="M 118.855469 91.503906 L 105.632812 104.398438 L 108.753906 122.601562 L 92.40625 114.003906 L 76.0625 122.601562 L 79.183594 104.398438 L 65.957031 91.503906 L 84.234375 88.847656 L 92.40625 72.285156 L 100.582031 88.847656 Z M 118.855469 91.503906 " fill-opacity="1" fill-rule="evenodd"/><path fill="#ffd242" d="M 232.988281 36.429688 L 212.359375 56.539062 L 217.226562 84.9375 L 191.730469 71.53125 L 166.234375 84.9375 L 171.105469 56.539062 L 150.476562 36.429688 L 178.980469 32.289062 L 191.730469 6.453125 L 204.480469 32.289062 Z M 232.988281 36.429688 " fill-opacity="1" fill-rule="evenodd"/><path fill="#ffd242" d="M 317.503906 91.503906 L 304.28125 104.398438 L 307.402344 122.601562 L 291.054688 114.003906 L 274.710938 122.601562 L 277.832031 104.398438 L 264.605469 91.503906 L 282.878906 88.847656 L 291.054688 72.285156 L 299.226562 88.847656 Z M 317.503906 91.503906 " fill-opacity="1" fill-rule="evenodd"/><path fill="#85d356" d="M 317.503906 239.597656 L 317.503906 264.363281 C 317.503906 268.640625 314.035156 272.109375 309.757812 272.109375 L 290.292969 272.109375 C 286.84375 272.109375 283.789062 274.382812 282.851562 277.699219 C 280.820312 284.914062 277.953125 291.78125 274.367188 298.1875 C 272.671875 301.210938 273.191406 304.992188 275.644531 307.445312 L 289.417969 321.21875 C 292.441406 324.242188 292.441406 329.148438 289.417969 332.171875 L 271.910156 349.683594 C 268.886719 352.710938 263.980469 352.710938 260.957031 349.683594 L 247.183594 335.90625 C 244.734375 333.453125 240.953125 332.933594 237.925781 334.628906 C 231.523438 338.21875 224.660156 341.085938 217.445312 343.117188 C 214.125 344.054688 211.851562 347.109375 211.851562 350.558594 L 211.851562 370.023438 C 211.851562 374.300781 208.386719 377.769531 204.109375 377.769531 L 179.351562 377.769531 C 175.078125 377.769531 171.609375 374.300781 171.609375 370.023438 L 171.609375 350.554688 C 171.609375 347.105469 169.335938 344.050781 166.015625 343.117188 C 158.804688 341.082031 151.9375 338.21875 145.53125 334.628906 C 142.507812 332.933594 138.726562 333.457031 136.273438 335.90625 L 122.5 349.683594 C 119.476562 352.710938 114.570312 352.710938 111.546875 349.683594 L 94.042969 332.171875 C 91.015625 329.148438 91.019531 324.242188 94.042969 321.21875 L 107.816406 307.441406 C 110.265625 304.992188 110.785156 301.210938 109.09375 298.183594 C 105.503906 291.777344 102.640625 284.914062 100.609375 277.699219 C 99.671875 274.382812 96.617188 272.105469 93.167969 272.105469 L 73.703125 272.105469 C 69.425781 272.105469 65.957031 268.636719 65.957031 264.359375 L 65.957031 239.597656 C 65.957031 235.320312 69.425781 231.851562 73.703125 231.851562 L 93.167969 231.851562 C 96.617188 231.851562 99.671875 229.578125 100.609375 226.257812 C 102.640625 219.042969 105.503906 212.175781 109.09375 205.769531 C 110.789062 202.746094 110.265625 198.964844 107.816406 196.511719 L 94.042969 182.738281 C 91.019531 179.714844 91.019531 174.808594 94.042969 171.785156 L 111.546875 154.28125 C 114.570312 151.257812 119.476562 151.257812 122.5 154.28125 L 136.269531 168.050781 C 138.722656 170.503906 142.503906 171.027344 145.527344 169.332031 C 151.933594 165.742188 158.800781 162.875 166.015625 160.839844 C 169.332031 159.90625 171.605469 156.847656 171.605469 153.398438 L 171.605469 133.933594 C 171.605469 129.65625 175.074219 126.191406 179.351562 126.191406 L 204.105469 126.191406 C 208.382812 126.191406 211.851562 129.65625 211.851562 133.933594 L 211.851562 153.398438 C 211.851562 156.847656 214.125 159.90625 217.441406 160.835938 C 224.660156 162.871094 231.523438 165.734375 237.929688 169.328125 C 240.953125 171.023438 244.734375 170.503906 247.1875 168.050781 L 260.953125 154.28125 C 263.980469 151.253906 268.882812 151.253906 271.90625 154.28125 L 289.410156 171.785156 C 292.4375 174.808594 292.4375 179.714844 289.410156 182.738281 L 275.640625 196.511719 C 273.1875 198.964844 272.667969 202.746094 274.363281 205.769531 C 277.953125 212.175781 280.820312 219.042969 282.847656 226.257812 C 283.785156 229.574219 286.839844 231.847656 290.289062 231.847656 L 309.753906 231.847656 C 314.035156 231.851562 317.503906 235.320312 317.503906 239.597656 Z M 253.757812 251.980469 C 253.757812 217.71875 225.988281 189.945312 191.730469 189.945312 C 157.472656 189.945312 129.703125 217.71875 129.703125 251.980469 C 129.703125 286.242188 157.472656 314.015625 191.730469 314.015625 C 225.988281 314.015625 253.757812 286.242188 253.757812 251.980469 Z M 253.757812 251.980469 " fill-opacity="1" fill-rule="evenodd"/><path fill="#d3ebcb" d="M 235.585938 208.113281 C 237.023438 209.550781 238.386719 211.054688 239.675781 212.625 C 240.964844 214.195312 242.171875 215.824219 243.300781 217.511719 C 244.429688 219.203125 245.472656 220.941406 246.429688 222.734375 C 247.386719 224.527344 248.253906 226.363281 249.03125 228.238281 C 249.808594 230.117188 250.492188 232.027344 251.082031 233.96875 C 251.671875 235.914062 252.164062 237.882812 252.5625 239.875 C 252.957031 241.867188 253.257812 243.875 253.457031 245.898438 C 253.65625 247.917969 253.753906 249.945312 253.753906 251.976562 C 253.753906 254.011719 253.65625 256.035156 253.457031 258.058594 C 253.257812 260.082031 252.957031 262.089844 252.5625 264.082031 C 252.167969 266.074219 251.671875 268.042969 251.082031 269.984375 C 250.492188 271.929688 249.8125 273.839844 249.03125 275.71875 C 248.253906 277.59375 247.386719 279.429688 246.429688 281.222656 C 245.472656 283.011719 244.429688 284.753906 243.300781 286.445312 C 242.171875 288.132812 240.964844 289.761719 239.675781 291.332031 C 238.386719 292.902344 237.023438 294.40625 235.585938 295.84375 C 234.152344 297.28125 232.648438 298.644531 231.078125 299.933594 C 229.507812 301.222656 227.878906 302.429688 226.1875 303.558594 C 224.5 304.6875 222.757812 305.730469 220.96875 306.6875 C 219.175781 307.648438 217.339844 308.515625 215.464844 309.292969 C 213.589844 310.070312 211.679688 310.753906 209.734375 311.34375 C 207.789062 311.933594 205.820312 312.425781 203.828125 312.824219 C 201.835938 313.21875 199.828125 313.515625 197.808594 313.714844 C 195.785156 313.914062 193.761719 314.015625 191.726562 314.015625 C 189.695312 314.015625 187.671875 313.914062 185.648438 313.714844 C 183.628906 313.515625 181.621094 313.21875 179.628906 312.824219 C 177.636719 312.425781 175.667969 311.933594 173.722656 311.34375 C 171.777344 310.753906 169.867188 310.070312 167.992188 309.292969 C 166.113281 308.515625 164.28125 307.648438 162.488281 306.691406 C 160.699219 305.734375 158.957031 304.6875 157.269531 303.558594 C 155.578125 302.433594 153.949219 301.222656 152.378906 299.933594 C 150.808594 298.644531 149.304688 297.28125 147.867188 295.847656 C 146.433594 294.410156 145.070312 292.90625 143.78125 291.335938 C 142.492188 289.765625 141.28125 288.132812 140.15625 286.445312 C 139.027344 284.757812 137.984375 283.015625 137.023438 281.222656 C 136.066406 279.433594 135.199219 277.597656 134.421875 275.71875 C 133.644531 273.84375 132.960938 271.933594 132.371094 269.988281 C 131.78125 268.042969 131.289062 266.074219 130.890625 264.082031 C 130.496094 262.089844 130.199219 260.082031 130 258.0625 C 129.800781 256.039062 129.699219 254.011719 129.699219 251.980469 C 129.699219 249.949219 129.800781 247.921875 130 245.898438 C 130.199219 243.878906 130.496094 241.871094 130.890625 239.878906 C 131.289062 237.886719 131.78125 235.917969 132.371094 233.972656 C 132.960938 232.027344 133.644531 230.117188 134.421875 228.242188 C 135.199219 226.363281 136.066406 224.527344 137.023438 222.738281 C 137.980469 220.945312 139.023438 219.203125 140.152344 217.515625 C 141.28125 215.824219 142.492188 214.195312 143.777344 212.625 C 145.066406 211.054688 146.429688 209.550781 147.867188 208.113281 C 149.304688 206.679688 150.808594 205.316406 152.375 204.027344 C 153.945312 202.738281 155.578125 201.527344 157.265625 200.398438 C 158.957031 199.269531 160.695312 198.226562 162.488281 197.269531 C 164.277344 196.3125 166.113281 195.445312 167.988281 194.667969 C 169.867188 193.890625 171.777344 193.207031 173.722656 192.617188 C 175.664062 192.027344 177.632812 191.53125 179.625 191.136719 C 181.617188 190.738281 183.625 190.441406 185.648438 190.242188 C 187.667969 190.042969 189.695312 189.945312 191.726562 189.945312 C 193.757812 189.945312 195.785156 190.042969 197.804688 190.242188 C 199.828125 190.441406 201.835938 190.738281 203.828125 191.136719 C 205.820312 191.53125 207.789062 192.023438 209.730469 192.613281 C 211.675781 193.203125 213.585938 193.886719 215.464844 194.664062 C 217.339844 195.441406 219.175781 196.3125 220.964844 197.269531 C 222.757812 198.226562 224.496094 199.269531 226.1875 200.398438 C 227.875 201.527344 229.503906 202.734375 231.074219 204.023438 C 232.644531 205.3125 234.148438 206.675781 235.585938 208.113281 Z M 235.585938 208.113281 " fill-opacity="1" fill-rule="nonzero"/><g clip-path="url(#1afc644b5a)"><path fill="#333333" d="M 204.109375 383.753906 L 179.351562 383.753906 C 171.78125 383.753906 165.621094 377.59375 165.621094 370.023438 L 165.621094 350.554688 C 165.621094 349.773438 165.117188 349.082031 164.394531 348.878906 C 156.816406 346.742188 149.484375 343.707031 142.605469 339.851562 C 141.925781 339.46875 141.0625 339.589844 140.511719 340.140625 L 126.738281 353.917969 C 124.144531 356.511719 120.695312 357.941406 117.027344 357.941406 C 113.355469 357.941406 109.910156 356.511719 107.316406 353.917969 L 89.808594 336.40625 C 84.453125 331.050781 84.457031 322.339844 89.808594 316.984375 L 103.582031 303.207031 C 104.136719 302.65625 104.253906 301.792969 103.871094 301.113281 C 100.015625 294.226562 96.980469 286.898438 94.847656 279.324219 C 94.644531 278.601562 93.953125 278.097656 93.171875 278.097656 L 73.707031 278.097656 C 66.132812 278.097656 59.972656 271.933594 59.972656 264.359375 L 59.972656 239.597656 C 59.972656 232.023438 66.132812 225.863281 73.707031 225.863281 L 93.171875 225.863281 C 93.953125 225.863281 94.644531 225.359375 94.847656 224.636719 C 96.980469 217.0625 100.015625 209.730469 103.871094 202.847656 C 104.253906 202.164062 104.136719 201.304688 103.582031 200.75 L 89.8125 186.976562 C 87.21875 184.382812 85.789062 180.933594 85.789062 177.265625 C 85.789062 173.597656 87.21875 170.148438 89.8125 167.554688 L 107.316406 150.050781 C 112.671875 144.695312 121.382812 144.695312 126.738281 150.050781 L 140.507812 163.824219 C 141.0625 164.375 141.925781 164.496094 142.605469 164.113281 C 149.488281 160.253906 156.820312 157.21875 164.398438 155.082031 C 165.117188 154.878906 165.625 154.1875 165.625 153.40625 L 165.625 133.941406 C 165.625 126.367188 171.785156 120.207031 179.355469 120.207031 L 204.113281 120.207031 C 211.683594 120.207031 217.84375 126.367188 217.84375 133.9375 L 217.84375 153.40625 C 217.84375 154.1875 218.351562 154.875 219.074219 155.078125 C 226.648438 157.214844 233.980469 160.25 240.863281 164.109375 C 241.542969 164.492188 242.40625 164.371094 242.960938 163.820312 L 256.726562 150.050781 C 262.082031 144.695312 270.792969 144.695312 276.148438 150.046875 L 293.652344 167.554688 C 296.246094 170.148438 297.675781 173.597656 297.675781 177.265625 C 297.675781 180.933594 296.246094 184.382812 293.652344 186.976562 L 279.882812 200.75 C 279.332031 201.304688 279.210938 202.164062 279.59375 202.847656 C 283.449219 209.730469 286.488281 217.0625 288.621094 224.636719 C 288.824219 225.359375 289.515625 225.867188 290.296875 225.867188 L 309.765625 225.867188 C 317.335938 225.867188 323.496094 232.027344 323.496094 239.601562 L 323.496094 264.363281 C 323.496094 271.9375 317.335938 278.097656 309.765625 278.097656 L 290.296875 278.097656 C 289.515625 278.097656 288.824219 278.601562 288.621094 279.324219 C 286.488281 286.902344 283.449219 294.234375 279.59375 301.113281 C 279.210938 301.796875 279.332031 302.660156 279.882812 303.210938 L 293.65625 316.984375 C 299.011719 322.339844 299.011719 331.054688 293.65625 336.40625 L 276.152344 353.917969 C 273.558594 356.511719 270.109375 357.941406 266.441406 357.941406 C 262.769531 357.941406 259.324219 356.515625 256.730469 353.917969 L 242.957031 340.144531 C 242.40625 339.589844 241.542969 339.472656 240.863281 339.855469 C 233.980469 343.710938 226.648438 346.75 219.074219 348.882812 C 218.351562 349.085938 217.847656 349.777344 217.847656 350.558594 L 217.847656 370.023438 C 217.839844 377.59375 211.683594 383.753906 204.109375 383.753906 Z M 141.769531 327.660156 C 144.0625 327.660156 146.371094 328.230469 148.460938 329.402344 C 154.515625 332.796875 160.96875 335.472656 167.640625 337.351562 C 173.503906 339.003906 177.597656 344.433594 177.597656 350.554688 L 177.597656 370.023438 C 177.597656 370.992188 178.382812 371.777344 179.351562 371.777344 L 204.109375 371.777344 C 205.078125 371.777344 205.867188 370.988281 205.867188 370.023438 L 205.867188 350.558594 C 205.867188 344.433594 209.960938 339.003906 215.824219 337.351562 C 222.488281 335.472656 228.941406 332.800781 235.003906 329.402344 C 240.339844 326.410156 247.09375 327.34375 251.421875 331.671875 L 265.195312 345.449219 C 265.621094 345.875 266.105469 345.964844 266.4375 345.964844 C 266.769531 345.964844 267.253906 345.875 267.679688 345.449219 L 285.183594 327.9375 C 285.871094 327.25 285.871094 326.136719 285.183594 325.453125 L 271.414062 311.679688 C 267.085938 307.351562 266.152344 300.597656 269.144531 295.257812 C 272.542969 289.199219 275.214844 282.746094 277.09375 276.078125 C 278.746094 270.214844 284.171875 266.117188 290.296875 266.117188 L 309.761719 266.117188 C 310.730469 266.117188 311.519531 265.328125 311.519531 264.359375 L 311.519531 239.597656 C 311.519531 238.628906 310.730469 237.839844 309.761719 237.839844 L 290.296875 237.839844 C 284.175781 237.839844 278.746094 233.746094 277.09375 227.882812 C 275.214844 221.214844 272.542969 214.761719 269.144531 208.699219 C 266.152344 203.359375 267.085938 196.609375 271.414062 192.28125 L 285.183594 178.507812 C 285.609375 178.082031 285.699219 177.59375 285.699219 177.261719 C 285.699219 176.933594 285.609375 176.445312 285.183594 176.019531 L 267.679688 158.515625 C 266.992188 157.832031 265.878906 157.832031 265.195312 158.515625 L 251.425781 172.285156 C 247.097656 176.613281 240.347656 177.546875 235.007812 174.554688 C 228.949219 171.15625 222.492188 168.484375 215.824219 166.605469 C 209.960938 164.953125 205.867188 159.523438 205.867188 153.398438 L 205.867188 133.9375 C 205.867188 132.96875 205.082031 132.179688 204.113281 132.179688 L 179.355469 132.179688 C 178.386719 132.179688 177.597656 132.96875 177.597656 133.9375 L 177.597656 153.402344 C 177.597656 159.527344 173.503906 164.957031 167.644531 166.605469 C 160.972656 168.488281 154.519531 171.164062 148.457031 174.558594 C 143.117188 177.550781 136.367188 176.617188 132.039062 172.292969 L 118.265625 158.519531 C 117.582031 157.832031 116.46875 157.832031 115.785156 158.519531 L 98.277344 176.023438 C 97.851562 176.449219 97.765625 176.933594 97.765625 177.265625 C 97.765625 177.597656 97.851562 178.082031 98.277344 178.507812 L 112.050781 192.28125 C 116.378906 196.609375 117.3125 203.359375 114.320312 208.703125 C 110.925781 214.761719 108.25 221.214844 106.375 227.882812 C 104.722656 233.746094 99.292969 237.84375 93.171875 237.84375 L 73.703125 237.84375 C 72.734375 237.84375 71.949219 238.628906 71.949219 239.597656 L 71.949219 264.363281 C 71.949219 265.332031 72.734375 266.117188 73.703125 266.117188 L 93.171875 266.117188 C 99.292969 266.117188 104.722656 270.214844 106.375 276.078125 C 108.25 282.742188 110.925781 289.199219 114.320312 295.261719 C 117.3125 300.597656 116.378906 307.351562 112.050781 311.679688 L 98.277344 325.453125 C 97.59375 326.140625 97.59375 327.253906 98.277344 327.9375 L 115.785156 345.449219 C 116.210938 345.875 116.695312 345.964844 117.027344 345.964844 C 117.359375 345.964844 117.84375 345.875 118.269531 345.449219 L 132.042969 331.671875 C 134.675781 329.039062 138.207031 327.660156 141.769531 327.660156 Z M 282.855469 277.699219 Z M 282.855469 277.699219 " fill-opacity="1" fill-rule="evenodd"/></g><path fill="#333333" d="M 191.730469 320.003906 C 173.5625 320.003906 156.484375 312.925781 143.636719 300.078125 C 130.789062 287.230469 123.714844 270.148438 123.714844 251.980469 C 123.714844 233.808594 130.789062 216.726562 143.636719 203.878906 C 156.484375 191.03125 173.5625 183.957031 191.730469 183.957031 C 209.898438 183.957031 226.980469 191.03125 239.824219 203.878906 C 252.671875 216.726562 259.746094 233.808594 259.746094 251.980469 C 259.746094 270.148438 252.671875 287.230469 239.824219 300.078125 C 226.980469 312.925781 209.898438 320.003906 191.730469 320.003906 Z M 191.730469 195.933594 C 160.832031 195.933594 135.691406 221.074219 135.691406 251.980469 C 135.691406 282.882812 160.832031 308.027344 191.730469 308.027344 C 222.632812 308.027344 247.769531 282.882812 247.769531 251.980469 C 247.769531 221.074219 222.632812 195.933594 191.730469 195.933594 Z M 191.730469 195.933594 " fill-opacity="1" fill-rule="evenodd"/><path fill="#333333" d="M 175.90625 274.546875 C 174.113281 274.546875 172.339844 273.742188 171.160156 272.210938 L 158.265625 255.472656 C 156.246094 252.851562 156.734375 249.09375 159.351562 247.074219 C 161.972656 245.054688 165.730469 245.542969 167.75 248.160156 L 177.050781 260.234375 L 216.878906 230.597656 C 219.53125 228.621094 223.285156 229.171875 225.257812 231.828125 C 227.234375 234.480469 226.683594 238.230469 224.027344 240.207031 L 179.476562 273.363281 C 178.40625 274.160156 177.152344 274.546875 175.90625 274.546875 Z M 175.90625 274.546875 " fill-opacity="1" fill-rule="evenodd"/><g clip-path="url(#f72b3db2d6)"><path fill="#333333" d="M 217.226562 90.925781 C 216.273438 90.925781 215.316406 90.699219 214.441406 90.238281 L 191.730469 78.296875 L 169.019531 90.238281 C 167.003906 91.296875 164.558594 91.121094 162.714844 89.78125 C 160.867188 88.441406 159.945312 86.171875 160.332031 83.921875 L 164.667969 58.632812 L 146.292969 40.71875 C 144.664062 39.128906 144.074219 36.75 144.777344 34.582031 C 145.484375 32.414062 147.355469 30.832031 149.613281 30.503906 L 175.003906 26.816406 L 186.359375 3.804688 C 187.367188 1.757812 189.449219 0.464844 191.730469 0.464844 C 194.007812 0.464844 196.089844 1.757812 197.097656 3.804688 L 208.453125 26.816406 L 233.847656 30.503906 C 236.101562 30.832031 237.976562 32.414062 238.679688 34.582031 C 239.382812 36.75 238.796875 39.128906 237.164062 40.71875 L 218.792969 58.632812 L 223.128906 83.925781 C 223.515625 86.171875 222.589844 88.441406 220.746094 89.78125 C 219.703125 90.539062 218.46875 90.925781 217.226562 90.925781 Z M 191.730469 65.539062 C 192.6875 65.539062 193.644531 65.769531 194.515625 66.230469 L 209.273438 73.988281 L 206.457031 57.554688 C 206.125 55.609375 206.769531 53.628906 208.179688 52.253906 L 220.117188 40.613281 L 203.617188 38.214844 C 201.667969 37.933594 199.980469 36.707031 199.109375 34.941406 L 191.730469 19.988281 L 184.351562 34.941406 C 183.480469 36.707031 181.792969 37.933594 179.84375 38.214844 L 163.34375 40.613281 L 175.285156 52.253906 C 176.695312 53.628906 177.339844 55.609375 177.003906 57.554688 L 174.1875 73.988281 L 188.945312 66.230469 C 189.816406 65.769531 190.773438 65.539062 191.730469 65.539062 Z M 191.730469 65.539062 " fill-opacity="1" fill-rule="evenodd"/></g><g clip-path="url(#be893217af)"><path fill="#333333" d="M 108.753906 128.589844 C 107.800781 128.589844 106.84375 128.363281 105.96875 127.902344 L 92.40625 120.773438 L 78.847656 127.902344 C 76.828125 128.960938 74.382812 128.785156 72.539062 127.445312 C 70.695312 126.105469 69.773438 123.835938 70.15625 121.585938 L 72.746094 106.484375 L 61.777344 95.792969 C 60.144531 94.199219 59.558594 91.820312 60.261719 89.652344 C 60.964844 87.484375 62.839844 85.902344 65.09375 85.574219 L 80.257812 83.371094 L 87.035156 69.632812 C 88.042969 67.589844 90.128906 66.292969 92.40625 66.292969 C 94.6875 66.292969 96.765625 67.589844 97.777344 69.632812 L 104.554688 83.371094 L 119.714844 85.574219 C 121.972656 85.902344 123.84375 87.484375 124.550781 89.652344 C 125.253906 91.820312 124.667969 94.199219 123.035156 95.792969 L 112.066406 106.484375 L 114.65625 121.585938 C 115.039062 123.835938 114.117188 126.105469 112.273438 127.445312 C 111.230469 128.203125 109.996094 128.589844 108.753906 128.589844 Z M 78.828125 95.683594 L 83.363281 100.105469 C 84.773438 101.484375 85.417969 103.464844 85.085938 105.40625 L 84.015625 111.652344 L 89.621094 108.703125 C 91.367188 107.789062 93.449219 107.789062 95.195312 108.703125 L 100.804688 111.652344 L 99.730469 105.40625 C 99.398438 103.464844 100.042969 101.484375 101.453125 100.105469 L 105.992188 95.683594 L 99.722656 94.773438 C 97.769531 94.492188 96.085938 93.265625 95.210938 91.5 L 92.410156 85.816406 L 89.605469 91.5 C 88.734375 93.265625 87.046875 94.492188 85.097656 94.773438 Z M 78.828125 95.683594 " fill-opacity="1" fill-rule="evenodd"/></g><path fill="#333333" d="M 307.402344 128.589844 C 306.449219 128.589844 305.492188 128.363281 304.613281 127.902344 L 291.054688 120.773438 L 277.492188 127.902344 C 275.476562 128.960938 273.03125 128.785156 271.1875 127.445312 C 269.34375 126.105469 268.417969 123.835938 268.804688 121.585938 L 271.394531 106.484375 L 260.421875 95.792969 C 258.789062 94.199219 258.203125 91.820312 258.90625 89.652344 C 259.609375 87.484375 261.484375 85.902344 263.742188 85.574219 L 278.902344 83.371094 L 285.683594 69.632812 C 286.691406 67.589844 288.773438 66.292969 291.050781 66.292969 C 293.332031 66.292969 295.414062 67.589844 296.421875 69.632812 L 303.203125 83.371094 L 318.363281 85.574219 C 320.617188 85.902344 322.492188 87.484375 323.195312 89.652344 C 323.898438 91.820312 323.3125 94.199219 321.679688 95.792969 L 310.710938 106.484375 L 313.300781 121.585938 C 313.6875 123.835938 312.761719 126.105469 310.917969 127.445312 C 309.878906 128.203125 308.644531 128.589844 307.402344 128.589844 Z M 291.054688 108.015625 C 292.011719 108.015625 292.96875 108.246094 293.84375 108.707031 L 299.449219 111.652344 L 298.378906 105.410156 C 298.042969 103.464844 298.6875 101.484375 300.101562 100.109375 L 304.636719 95.6875 L 298.367188 94.773438 C 296.417969 94.492188 294.730469 93.265625 293.859375 91.5 L 291.054688 85.816406 L 288.25 91.5 C 287.378906 93.265625 285.691406 94.492188 283.742188 94.773438 L 277.472656 95.6875 L 282.007812 100.109375 C 283.421875 101.484375 284.0625 103.464844 283.730469 105.410156 L 282.660156 111.652344 L 288.269531 108.703125 C 289.140625 108.246094 290.097656 108.015625 291.054688 108.015625 Z M 291.054688 108.015625 " fill-opacity="1" fill-rule="evenodd"/></svg>